<svg width="236px" height="192px" viewBox="0 0 236 192" version="1.1" xmlns="http://www.w3.org/2000/svg" xmlns:xlink="http://www.w3.org/1999/xlink">
  <g id="Page-1" stroke="none" stroke-width="1" fill="none" fill-rule="evenodd">
    <g id="Twitter_Social_Icon_Circle_White" transform="translate(-105.000000, -128.000000)" fill="#FFFFFF" fill-rule="nonzero">
      <path d="M179.4,319.5 C268.1,319.5 316.6,246 316.6,182.3 C316.6,180.2 316.6,178.1 316.5,176.1 C325.9,169.3 334.1,160.8 340.6,151.1 C332,154.9 322.7,157.5 312.9,158.7 C322.9,152.7 330.5,143.3 334.1,132 C324.8,137.5 314.5,141.5 303.5,143.7 C294.7,134.3 282.2,128.5 268.3,128.5 C241.7,128.5 220.1,150.1 220.1,176.7 C220.1,180.5 220.5,184.2 221.4,187.7 C181.3,185.7 145.8,166.5 122,137.3 C117.9,144.4 115.5,152.7 115.5,161.5 C115.5,178.2 124,193 137,201.6 C129.1,201.4 121.7,199.2 115.2,195.6 C115.2,195.8 115.2,196 115.2,196.2 C115.2,219.6 131.8,239 153.9,243.5 C149.9,244.6 145.6,245.2 141.2,245.2 C138.1,245.2 135.1,244.9 132.1,244.3 C138.2,263.5 156,277.4 177.1,277.8 C160.6,290.7 139.8,298.4 117.2,298.4 C113.3,298.4 109.5,298.2 105.7,297.7 C126.8,311.5 152.2,319.5 179.4,319.5 Z" id="Path"></path>
    </g>
  </g>
</svg>
